PathFileType	4	(X/Y/Z)	C:\Users\Biomechanik\SynologyDrive\AlexP\Athlete_03\Athlete_3_25_03_31\Walking_02\marker_experimental.trc
DataRate	CameraRate	NumFrames	NumMarkers	Units	OrigDataRate	OrigDataStartFrame	OrigNumFrames
200.000000	200.000000	4	53	mm	200.000000	61	493
Frame#	Time	GLAB			RFHD			LFHD			C7			T6			SPINMOL			SPINM2			SPINM3			T12			BELTOL			BELT2			BELT3			SACROL			SACR2			SACR3			LTHOL			LTH2			LTH3			LSHAOL			LSHA2			LSHA3			LHEE			LTOE			LM5			RTHOL			RTH2			RSHAOL			RSHA2			RSHA3			RHEE			RTOE			RM5			STRN			XIPH			LACR			LUAOL			LUA2			LUA3			LLAOL			LLA2			LLA3			LWRR			LWRU			RACR			RUAOL			RUA2			RUA3			RLAOL			RLA2			RLA3			RWRR			RWRU			RTH3			
		X1	Y1	Z1	X2	Y2	Z2	X3	Y3	Z3	X4	Y4	Z4	X5	Y5	Z5	X6	Y6	Z6	X7	Y7	Z7	X8	Y8	Z8	X9	Y9	Z9	X10	Y10	Z10	X11	Y11	Z11	X12	Y12	Z12	X13	Y13	Z13	X14	Y14	Z14	X15	Y15	Z15	X16	Y16	Z16	X17	Y17	Z17	X18	Y18	Z18	X19	Y19	Z19	X20	Y20	Z20	X21	Y21	Z21	X22	Y22	Z22	X23	Y23	Z23	X24	Y24	Z24	X25	Y25	Z25	X26	Y26	Z26	X27	Y27	Z27	X28	Y28	Z28	X29	Y29	Z29	X30	Y30	Z30	X31	Y31	Z31	X32	Y32	Z32	X33	Y33	Z33	X34	Y34	Z34	X35	Y35	Z35	X36	Y36	Z36	X37	Y37	Z37	X38	Y38	Z38	X39	Y39	Z39	X40	Y40	Z40	X41	Y41	Z41	X42	Y42	Z42	X43	Y43	Z43	X44	Y44	Z44	X45	Y45	Z45	X46	Y46	Z46	X47	Y47	Z47	X48	Y48	Z48	X49	Y49	Z49	X50	Y50	Z50	X51	Y51	Z51	X52	Y52	Z52	X53	Y53	Z53	

62	0.305	-193.4922943115236	1578.307495117188	298.3269653320312	-245.4518127441408	1602.7255859375	361.9086303710937	-234.6332092285157	1604.533325195312	224.8031768798828	-422.0061340332033	1421.238891601562	276.0878295898437	-481.8065490722657	1253.217407226562	263.1464233398436	-490.0278320312501	1213.37353515625	240.2917175292968	-494.8578491210939	1204.525146484375	289.8390502929686	-485.5169982910157	1148.837280273438	254.4559631347655	-460.8985900878907	1083.116455078125	256.2268981933593	-492.3939819335939	1050.876708984375	238.6903686523437	-492.3183898925782	1048.980834960938	289.1547546386718	-498.7261657714845	988.94287109375	260.4239196777343	-485.9585876464845	935.3477783203125	245.6881561279296	-479.0449523925782	935.0054321289062	296.6842956542968	-494.450897216797	875.0032958984375	272.7611999511718	-428.2195739746094	659.5786743164062	67.23660278320304	-471.4851074218751	607.033447265625	109.1618118286132	-434.3746948242188	600.1830444335938	77.65769958496085	-555.0254516601562	387.5046997070312	60.97174072265615	-629.2723999023438	381.1833496093749	88.90813446044911	-596.6228637695312	344.3403930664062	75.49526214599598	-745.8936767578125	285.1752624511718	183.9737243652342	-724.2140502929688	69.84438323974605	179.6818389892577	-767.5054931640625	104.5015640258789	89.19727325439439	-313.8888549804689	664.3146362304688	448.3087158203124	-242.1522827148439	631.1246948242188	449.5443115234374	-243.8247833251954	329.7149658203125	433.8713684082031	-201.9931793212892	263.1682434082031	426.8247070312499	-250.9556579589845	269.6276245117188	419.4305419921874	-268.1677246093751	55.77017211914061	310.9893188476562	-53.32136917114263	49.72453308105469	312.4526062011719	-104.226921081543	37.28650283813476	413.9913024902344	-250.7194061279298	1319.331420898438	277.7424011230468	-235.7840881347658	1176.005737304688	269.9303894042968	-336.9353332519532	1391.248291015625	104.1286315917968	-326.3192749023438	1244.836059570312	-2.814126253128112	-333.9237976074219	1184.171752929688	-26.80398368835455	-289.9070434570313	1189.765747070312	-1.242299556732231	-251.5529479980469	991.9631958007812	-57.34717941284185	-262.1940612792969	915.0372924804688	-43.3855705261231	-219.8340148925782	939.6245727539062	-53.86727905273442	-157.7653503417969	856.0300903320312	-48.75047683715823	-127.5856018066407	877.9519653320312	20.96603202819822	-341.9018859863282	1369.209228515625	446.0095214843749	-373.1170043945314	1217.835327148438	539.2650146484374	-355.6333312988283	1154.495971679688	545.6800537109374	-405.2118225097658	1162.478759765625	556.4321899414061	-397.2987060546877	943.353759765625	584.8234252929686	-351.7605285644533	886.4072875976562	616.9985961914061	-392.3682861328127	880.3810424804688	589.0895385742186	-364.851287841797	796.1585693359375	607.1701660156249	-324.5117797851564	776.6658325195312	539.0230102539061	-284.598358154297	611.4520263671875	437.8894348144531	
63	0.31	-186.7264709472658	1579.489135742188	299.2096557617187	-238.7069396972658	1603.851806640625	362.7749328613281	-227.8395996093751	1605.74169921875	225.6769714355468	-415.1536254882814	1422.364501953125	276.8512878417968	-474.9482421875001	1254.287353515625	264.0736999511718	-483.1563110351564	1214.43115234375	241.2658233642577	-487.9308471679689	1205.627685546875	290.8268432617186	-478.6138916015626	1149.907836914062	255.486099243164	-453.9731750488282	1084.167358398438	257.3207702636718	-485.6229858398439	1051.683349609375	239.7596893310546	-485.5323486328126	1049.8154296875	290.2237548828124	-491.8963012695314	989.7533569335938	261.5232849121093	-478.9297485351564	936.0723266601562	246.7797546386718	-472.0633544921876	935.9351806640625	297.7895507812499	-487.4944763183595	875.84228515625	274.090606689453	-417.5398864746094	659.3685913085938	67.32930755615227	-459.8591918945313	605.9895629882812	109.089141845703	-422.7545776367188	599.8629150390625	77.4948425292968	-541.0375366210938	389.0599365234374	60.15747833251943	-615.1898193359375	383.5328674316406	88.46376800537098	-583.0704345703125	346.3424072265624	74.86322784423817	-732.6550903320312	289.5082397460937	184.1053466796874	-714.2940063476562	72.73512268066402	179.2100677490233	-757.6250610351562	108.9860305786132	89.39961242675767	-308.598114013672	664.9696655273438	448.8019409179687	-237.2789459228517	631.0726318359375	449.8565979003906	-241.4418029785157	329.8649597167969	433.9872741699218	-200.0955047607423	262.9923706054688	426.8460693359374	-249.0417327880861	269.8350219726562	419.4639587402343	-267.9964294433594	56.01451110839842	310.7900695800781	-53.02719116210943	49.26285552978516	312.3419189453125	-104.179313659668	37.40752029418945	413.8951721191406	-243.8526458740236	1320.54833984375	278.3219299316406	-228.9900665283205	1177.147705078125	270.5816955566406	-330.2349548339844	1392.3671875	104.7836532592773	-320.1242065429688	1245.78955078125	-2.096489191055356	-328.0928649902344	1185.138061523438	-25.96123313903815	-283.9617309570313	1190.54638671875	-0.4797488152981326	-247.1660156250001	992.2866821289062	-56.64287567138676	-258.4918212890626	915.4901733398438	-42.6135978698731	-215.9544372558594	939.6207275390625	-53.37239456176762	-154.6689147949219	855.4407348632812	-48.71450042724612	-123.9829711914063	876.831298828125	20.93385505676267	-334.6843261718751	1370.467163085938	446.6452331542968	-364.8386230468752	1218.98681640625	540.2158203124999	-346.9387512207033	1155.712768554688	546.3525390624999	-396.4669189453127	1163.436157226562	557.5550537109374	-387.1153564453127	944.293212890625	585.7910766601561	-340.847137451172	887.616943359375	617.4378051757811	-381.7637329101564	881.3890380859375	589.9544067382811	-353.4251098632814	797.3419799804688	607.6289062499999	-313.5612182617189	778.1492919921875	539.0811157226561	-279.8237609863282	611.9037475585938	438.2996215820312	
64	0.315	-179.986297607422	1580.664184570312	300.0422668457031	-231.9867095947267	1604.979370117188	363.5897827148437	-221.0668945312501	1606.944702148438	226.4990539550781	-408.339324951172	1423.500732421875	277.5787963867187	-468.1362609863282	1255.367919921875	264.9855651855468	-476.3297729492189	1215.4951171875	242.2308349609374	-481.0554199218751	1206.742553710938	291.8054809570311	-471.7583618164064	1150.986694335938	256.5150756835936	-447.0875854492189	1085.220092773438	258.4128723144531	-478.9050903320314	1052.453857421875	240.9060974121093	-478.777069091797	1050.605224609375	291.3687133789061	-485.0961303710939	990.5230712890625	262.691192626953	-471.9392700195314	936.8380126953125	247.8781280517577	-465.1247558593751	936.889404296875	298.9007873535155	-480.5818176269532	876.7154541015625	275.4064331054686	-406.9158325195313	659.3092651367188	67.43005371093743	-448.2653808593751	605.1192016601562	109.0371475219726	-411.1665344238282	599.70654296875	77.37285614013665	-527.007080078125	390.6339416503906	59.39690017700185	-601.0667114257812	385.8129272460937	88.01738739013661	-569.4227905273438	348.3139343261718	74.27819061279287	-719.4766845703125	293.4927062988281	184.2303619384764	-703.547607421875	75.56211090087886	178.7748413085936	-746.8667602539062	113.1374588012695	89.51782226562486	-303.4841918945314	665.6270141601562	449.2303771972656	-232.5651702880861	631.0469360351562	450.1646728515624	-239.1959991455079	330.0008544921875	434.0968017578124	-198.3155670166017	262.8245544433594	426.8899536132812	-247.2365722656251	270.0312194824219	419.4922485351562	-267.8322753906251	56.25964736938475	310.5911254882812	-52.76671218872076	48.87102127075195	312.251953125	-104.134132385254	37.51365661621093	413.8113403320312	-237.0285797119142	1321.763916015625	278.8542480468749	-222.2532806396486	1178.287963867188	271.2066650390624	-323.5993957519532	1393.4638671875	105.3839111328124	-314.0139160156251	1246.712280273438	-1.422787785530148	-322.3145141601563	1186.072631835938	-25.17926979064947	-278.0789489746094	1191.31494140625	0.222493901848742	-242.837631225586	992.5986328125	-55.9792861938477	-254.8431549072266	915.9408569335938	-41.86334991455083	-212.1378021240235	939.6127319335938	-52.91338729858402	-151.6363830566407	854.8628540039062	-48.70451736450198	-120.4474334716797	875.7239990234375	20.87024879455564	-327.4977416992189	1371.733154296875	447.2389526367187	-356.5821228027345	1220.173583984375	541.1439819335936	-338.263641357422	1156.9638671875	547.0098876953124	-387.7308959960939	1164.434692382812	558.6677856445311	-376.8975524902345	945.2674560546875	586.7639160156249	-329.8687744140627	888.876953125	617.8449707031249	-371.1123352050783	882.43994140625	590.8208007812499	-341.9243164062502	798.5736083984375	608.0601806640624	-302.531707763672	779.6976318359375	539.1099243164062	-275.2303771972657	612.357666015625	438.6716613769531	
65	0.32	-173.2711334228517	1581.831420898438	300.8234863281249	-225.2907714843751	1606.107666015625	364.3526916503906	-214.3155517578126	1608.139770507812	227.2681274414062	-401.5640258789064	1424.643798828125	278.2712707519531	-461.3680114746095	1256.456420898438	265.8802490234374	-469.5456542968751	1216.5625	243.1836547851562	-474.2292785644532	1207.865966796875	292.7717285156249	-464.9478759765626	1152.070678710938	257.5384216308593	-440.2400817871095	1086.273071289062	259.4982299804687	-472.2354431152345	1053.19970703125	242.1195068359374	-472.0492248535157	1051.362426757812	292.5796813964843	-478.3239135742189	991.2642211914062	263.9189147949218	-464.9845275878907	937.6449584960938	248.9644470214843	-458.2319641113282	937.8657836914062	300.0000610351562	-473.7048950195314	877.6196899414062	276.6850280761718	-396.3496093750001	659.3889770507812	67.5444259643554	-436.7111511230469	604.4102783203125	109.0079803466796	-399.6163024902344	599.7030029296875	77.2924728393554	-512.9602661132812	392.2246398925781	58.70489120483389	-586.9373168945312	388.0203247070312	87.57587432861317	-555.7078857421875	350.2510986328124	73.75072479248037	-706.384521484375	297.1063537597656	184.3437652587889	-691.9609985351562	78.28929901123043	178.3859710693358	-735.2365112304688	116.9040298461914	89.55519866943345	-298.5292358398439	666.2909545898438	449.6078491210937	-227.9868927001954	631.0598754882812	450.4762878417968	-237.070526123047	330.1268615722656	434.2028808593749	-196.6391906738282	262.6674499511719	426.9491271972656	-245.5283355712892	270.2201232910156	419.5203247070312	-267.6737976074219	56.50852584838866	310.3931884765624	-52.53479766845709	48.53920364379883	312.180419921875	-104.0910034179688	37.60369873046874	413.7395629882812	-230.2453765869142	1322.976684570312	279.3430786132812	-215.5671997070314	1179.427612304688	271.8081054687499	-317.026824951172	1394.537963867188	105.9328536987304	-307.9873046875001	1247.604125976562	-0.7903095483780473	-316.5873718261719	1186.974975585938	-24.45497512817388	-272.2545776367188	1192.071533203125	0.8662428259849049	-238.5637664794922	992.9019775390625	-55.35658264160161	-251.2452850341797	916.391357421875	-41.13923645019536	-208.3812255859376	939.603515625	-52.4903717041016	-148.6660766601563	854.2962036132812	-48.7195739746094	-116.9778213500977	874.6311645507812	20.77601242065428	-320.3452758789064	1373.005493164062	447.7927551269531	-348.3492736816408	1221.392944335938	542.0475463867186	-329.6113891601564	1158.248413085938	547.6516723632811	-379.007781982422	1165.47265625	559.7694702148436	-366.6484680175783	946.2769775390625	587.7383422851561	-318.8303527832033	890.1880493164062	618.2163085937499	-360.4164428710939	883.5330200195312	591.6849365234374	-330.356170654297	799.853515625	608.4617919921874	-291.4331970214845	781.3103637695312	539.1074829101562	-270.7981262207032	612.8180541992188	439.0164184570312	
